<svg xmlns="http://www.w3.org/2000/svg" xmlns:xlink="http://www.w3.org/1999/xlink" viewBox="0 0 584.36 146.03">
  <defs>
    <radialGradient id="AxeLogoGradient" cx="79.24" cy="80.1" fx="2.81" fy="80.1" r="107.84" gradientTransform="translate(176.06 -.69) rotate(89.09) scale(1 1.22)" gradientUnits="userSpaceOnUse">
      <stop offset="0" stop-color="#ff601a" />
      <stop offset=".32" stop-color="#ff611c" />
      <stop offset=".47" stop-color="#ff6723" />
      <stop offset=".58" stop-color="#ff7030" />
      <stop offset=".68" stop-color="#ff7d42" />
      <stop offset=".76" stop-color="#ff8f5a" />
      <stop offset=".84" stop-color="#ffa477" />
      <stop offset=".91" stop-color="#ffbe9a" />
      <stop offset=".97" stop-color="#ffdac2" />
      <stop offset="1" stop-color="#ffead7" />
    </radialGradient>
  </defs>
  <path fill="url(#AxeLogoGradient)" d="M92.46,0h-26.94L0,128.58l8.93,7.48,11.93,9.97c14.41-15.24,35.11-24.8,58.12-24.8s43.51,9.46,57.9,24.58l11.66-9.74,9.28-7.76L92.46,0ZM78.74,92.74c-10.17,0-19.88,1.95-28.78,5.5l29.13-57.17,29.32,57.53c-9.14-3.77-19.16-5.85-29.66-5.85Z" />
  <path fill="#ff601a" d="M276.66,64.87l18.12-25.22h-15.22l-10.91,15.22-10.62-15.22h-16.12l18.23,25.22-8.31,11.4c-.67.92-1.82,1.64-3.08,2.14-2.1.83-4.42.85-6.6.28-1.7-.44-3.54-1.26-3.54-2.71v-18.22c0-12.32-8.31-18.73-22.73-18.73-13.61,0-22.83,6.61-23.83,16.63h13.61c.6-3.8,4.31-6.31,9.82-6.31,5.9,0,9.21,3,9.21,7.61v2.51h-10.22c-15.43,0-23.63,6.2-23.63,17.12,0,9.81,8,15.12,19.12,15.12,8.02,0,13.22-3.31,16.82-9.02,1.74,4.83,5.53,8.41,12.84,8.41h16.48l11.72-16.12,11.81,16.12h16.12l-19.12-26.24ZM224.7,69.88c-.11,7-4.61,11.61-12.02,11.61-4.71,0-7.61-2.31-7.61-5.9,0-4.31,3.4-6.71,9.31-6.71h10.31v1Z" />
  <path fill="#ff601a" d="M291.37,65.47c0-16.02,10.51-26.43,26.43-26.43s25.83,9.61,26.03,24.73c0,1.5-.1,3.2-.4,4.81h-37.35v.7c.3,7.31,5.01,11.72,12.12,11.72,5.71,0,9.71-2.5,10.91-7.31h13.92c-1.6,10.01-10.51,18.02-24.23,18.02-17.12,0-27.43-10.31-27.43-26.23ZM328.66,59.37c.51,0,.88-.48.77-.97-1.28-5.69-5.46-8.84-11.53-8.84s-10.22,3.32-11.35,8.85c-.1.49.27.96.77.96h21.34Z" />
  <path fill="#074058" d="M349.3,65.39c0-15.78,10.22-26.5,25.19-26.5,12.64,0,20.64,7.08,22.76,18.41h-8.7c-1.52-6.88-6.58-11.03-14.16-11.03-9.91,0-16.59,7.89-16.59,19.12s6.68,18.92,16.59,18.92c7.38,0,12.44-4.25,14.06-10.82h8.8c-2.02,11.13-10.42,18.21-22.96,18.21-15.07,0-24.99-10.22-24.99-26.3Z" />
  <path fill="#074058" d="M401.67,25.43c0-3.14,2.33-5.36,5.36-5.36s5.36,2.23,5.36,5.36-2.33,5.36-5.36,5.36-5.36-2.23-5.36-5.36ZM402.78,39.5h8.29v51.59h-8.29v-51.59Z" />
  <path fill="#074058" d="M467.32,65.29c0,15.78-10.52,26.4-24.78,26.4-7.79,0-13.3-2.84-16.62-6.98-.42-.52-1.25-.27-1.35.38l-.85,5.99h-7.18V20.28h8.29v25.32c0,.71.88,1.04,1.34.5,3.49-4.01,8.71-7.21,16.36-7.21,14.26,0,24.78,9.61,24.78,26.4ZM458.82,65.29c0-11.23-6.88-19.02-17.1-19.02s-16.99,7.79-16.99,18.82,6.88,19.22,16.99,19.22,17.1-7.79,17.1-19.02Z" />
  <path fill="#074058" d="M472.78,20.28h8.29v70.81h-8.29V20.28Z" />
  <path fill="#074058" d="M486.54,65.29c0-15.68,9.91-26.4,24.48-26.4s24.08,9.21,24.48,24.48c0,1.11-.1,2.33-.2,3.54h-41.3,0c.75.43,1.24,1.19,1.32,2.05.8,9.09,6.85,15.35,16.21,15.35,7.28,0,12.95-3.84,14.67-10.52h8.4c-2.02,10.32-10.52,17.91-22.46,17.91-15.48,0-25.59-10.62-25.59-26.4ZM525.73,60.03c.46,0,.82-.4.76-.86-1.11-8.36-7.06-13-15.38-13-7.32,0-14.08,5.09-15.27,13-.07.46.3.86.76.86h29.12Z" />
  <path fill="#074058" d="M549.46,74.09c.3,6.07,5.66,10.52,14.26,10.52,7.28,0,12.44-3.14,12.44-7.89,0-6.47-5.67-6.98-13.35-7.89-11.53-1.42-20.74-3.74-20.74-14.47,0-9.41,8.6-15.58,20.23-15.48,11.73.1,20.23,5.56,21.04,16.29h-8.5c-.61-5.26-5.46-9.21-12.54-9.21s-12.04,3.03-12.04,7.79c0,5.66,5.46,6.37,12.95,7.28,11.73,1.42,21.14,3.64,21.14,15.07,0,9.61-9.21,15.58-20.64,15.58-13.35,0-22.56-6.27-22.76-17.6h8.5Z" />
  <path fill="#074058" d="M200.87,121.64l-5.52-14.7h1.91l4.64,12.83,4.68-12.83h1.87l-5.52,14.7h-2.06Z" />
  <path fill="#074058" d="M215.53,121.89c-.95,0-1.83-.21-2.62-.64-.8-.43-1.43-1.05-1.91-1.87-.48-.82-.71-1.81-.71-2.97s.23-2.06.7-2.88c.47-.81,1.11-1.44,1.91-1.89.81-.45,1.71-.67,2.72-.67s1.85.21,2.66.63c.81.42,1.45,1.04,1.94,1.85.49.81.73,1.8.73,2.96,0,1.06-.23,2.01-.69,2.83-.46.83-1.1,1.47-1.92,1.94-.82.47-1.75.7-2.8.7ZM215.53,120.36c.69,0,1.3-.16,1.85-.49.55-.33.98-.79,1.3-1.38.32-.59.48-1.28.48-2.08,0-.76-.14-1.43-.42-2.02s-.69-1.05-1.22-1.39-1.18-.5-1.93-.5-1.42.17-1.94.52c-.53.35-.92.82-1.19,1.41-.27.59-.4,1.25-.4,1.97,0,.92.17,1.68.5,2.26.34.58.77,1.01,1.3,1.28s1.08.41,1.66.41Z" />
  <path fill="#074058" d="M229.16,121.89c-.81,0-1.52-.16-2.13-.49-.61-.33-1.08-.83-1.42-1.51s-.5-1.54-.5-2.57v-6.09h1.76v5.9c0,1.08.22,1.89.67,2.44.45.55,1.12.82,2.02.82s1.64-.33,2.24-.98c.59-.65.89-1.58.89-2.78v-5.4h1.76v10.42h-1.6l-.1-1.87c-.34.66-.82,1.18-1.45,1.55s-1.34.57-2.14.57Z" />
  <path fill="#074058" d="M243.27,121.89c-.83,0-1.57-.14-2.23-.43-.66-.29-1.19-.69-1.58-1.22-.4-.52-.65-1.14-.75-1.86h1.81c.11.55.4,1.02.87,1.42.47.4,1.1.6,1.9.6.74,0,1.29-.16,1.64-.47.35-.31.53-.69.53-1.12s-.1-.74-.3-.97-.5-.4-.88-.51c-.38-.12-.86-.23-1.42-.35-.59-.13-1.16-.3-1.72-.51-.56-.22-1.02-.51-1.39-.89-.36-.38-.55-.88-.55-1.49s.15-1.15.46-1.62c.31-.46.75-.83,1.31-1.09.57-.27,1.24-.4,2-.4,1.11,0,2.01.28,2.72.83s1.12,1.34,1.23,2.36h-1.74c-.07-.53-.3-.95-.68-1.25-.39-.3-.9-.45-1.54-.45s-1.12.13-1.46.4c-.34.27-.51.62-.51,1.05,0,.28.1.52.29.71.2.2.48.36.85.5.37.14.81.27,1.31.38.7.14,1.34.31,1.91.52s1.04.51,1.39.91c.35.4.52.97.52,1.71.01.62-.14,1.17-.47,1.66-.33.49-.79.88-1.39,1.16s-1.31.42-2.13.42Z" />
  <path fill="#074058" d="M259.78,121.64v-8.92h-1.57v-1.49h1.57v-1.39c0-1.01.25-1.74.76-2.21.5-.46,1.24-.69,2.2-.69h1.05v1.51h-.78c-.53,0-.91.11-1.13.33-.22.22-.34.58-.34,1.1v1.34h2.56v1.49h-2.56v8.92h-1.76Z" />
  <path fill="#074058" d="M271.18,121.89c-.71,0-1.37-.12-1.95-.36s-1.05-.6-1.4-1.08-.51-1.07-.51-1.77c0-.81.21-1.46.63-1.94.42-.48.98-.83,1.67-1.05.69-.22,1.44-.33,2.24-.33h2.81c0-.73-.12-1.3-.37-1.72s-.56-.72-.96-.9c-.39-.18-.83-.27-1.3-.27-.69,0-1.28.16-1.77.49-.5.33-.81.84-.93,1.52h-1.81c.07-.76.32-1.39.76-1.91.43-.52.98-.91,1.65-1.19.67-.27,1.37-.41,2.11-.41,1.05,0,1.9.19,2.54.58.64.39,1.11.9,1.41,1.54s.44,1.36.44,2.14v3.19c0,.52.06.91.19,1.18.13.27.45.43.97.48v1.55c-.46,0-.88-.06-1.26-.18-.38-.12-.7-.31-.96-.59s-.44-.63-.56-1.08c-.35.59-.83,1.09-1.44,1.49s-1.34.61-2.19.61ZM271.45,120.4c.7,0,1.29-.18,1.76-.54.48-.36.84-.82,1.08-1.38s.37-1.14.37-1.74v-.02h-2.67c-.49,0-.95.05-1.39.16-.43.1-.78.29-1.05.57s-.4.65-.4,1.14c0,.63.22,1.09.67,1.38.45.29.99.43,1.62.43Z" />
  <path fill="#074058" d="M282.71,108.91c-.35,0-.64-.12-.87-.35-.23-.23-.35-.52-.35-.87s.12-.62.35-.84c.23-.22.52-.34.87-.34s.62.11.86.34c.24.22.36.5.36.84s-.12.64-.36.87c-.24.23-.52.35-.86.35ZM281.83,121.64v-10.42h1.76v10.42h-1.76Z" />
  <path fill="#074058" d="M292.71,121.64c-.95,0-1.7-.23-2.25-.69s-.82-1.29-.82-2.5v-5.73h-1.81v-1.49h1.81v-2.5h1.76v2.5h2.92v1.49h-2.92v5.73c0,.66.13,1.1.4,1.33.27.23.74.35,1.41.35h1.11v1.51h-1.62Z" />
  <path fill="#074058" d="M303.04,121.89c-.97,0-1.84-.22-2.61-.67s-1.39-1.08-1.84-1.9c-.45-.82-.67-1.78-.67-2.89s.21-2.05.64-2.87c.43-.82,1.03-1.46,1.81-1.91.78-.46,1.68-.68,2.72-.68.98,0,1.83.22,2.56.65.73.43,1.3,1.02,1.71,1.75.41.74.62,1.56.62,2.47v.46c0,.11,0,.29-.02.52h-8.29c.04.69.21,1.3.49,1.84.29.54.68.96,1.18,1.27.5.31,1.07.46,1.71.46.73,0,1.34-.17,1.83-.5s.85-.79,1.07-1.36h1.74c-.18.64-.48,1.22-.9,1.72-.42.5-.94.9-1.56,1.2s-1.35.44-2.17.44ZM299.68,115.47h6.55c-.04-.94-.36-1.67-.97-2.21-.6-.53-1.34-.8-2.23-.8s-1.58.26-2.24.77c-.65.51-1.03,1.26-1.12,2.24Z" />
  <path fill="#074058" d="M316.23,121.89c-.83,0-1.57-.14-2.23-.43-.66-.29-1.19-.69-1.58-1.22-.4-.52-.65-1.14-.75-1.86h1.81c.11.55.4,1.02.87,1.42.47.4,1.1.6,1.9.6.74,0,1.29-.16,1.64-.47.35-.31.53-.69.53-1.12s-.1-.74-.3-.97-.5-.4-.88-.51c-.38-.12-.86-.23-1.42-.35-.59-.13-1.16-.3-1.72-.51-.56-.22-1.02-.51-1.39-.89-.36-.38-.55-.88-.55-1.49s.15-1.15.46-1.62c.31-.46.75-.83,1.31-1.09.57-.27,1.24-.4,2-.4,1.11,0,2.01.28,2.72.83s1.12,1.34,1.23,2.36h-1.74c-.07-.53-.3-.95-.68-1.25-.39-.3-.9-.45-1.54-.45s-1.12.13-1.46.4c-.34.27-.51.62-.51,1.05,0,.28.1.52.29.71.2.2.48.36.85.5.37.14.81.27,1.31.38.7.14,1.34.31,1.91.52s1.04.51,1.39.91c.35.4.52.97.52,1.71.01.62-.14,1.17-.47,1.66-.33.49-.79.88-1.39,1.16s-1.31.42-2.13.42Z" />
  <path fill="#074058" d="M332.17,121.64v-14.7h1.76v14.7h-1.76Z" />
  <path fill="#074058" d="M343.44,121.89c-.97,0-1.84-.22-2.61-.67s-1.39-1.08-1.84-1.9c-.45-.82-.67-1.78-.67-2.89s.21-2.05.64-2.87c.43-.82,1.03-1.46,1.81-1.91.78-.46,1.68-.68,2.72-.68.98,0,1.83.22,2.56.65.73.43,1.3,1.02,1.71,1.75.41.74.62,1.56.62,2.47v.46c0,.11,0,.29-.02.52h-8.29c.04.69.21,1.3.49,1.84.29.54.68.96,1.18,1.27.5.31,1.07.46,1.71.46.73,0,1.34-.17,1.83-.5s.85-.79,1.07-1.36h1.74c-.18.64-.48,1.22-.9,1.72-.42.5-.94.9-1.56,1.2s-1.35.44-2.17.44ZM340.08,115.47h6.55c-.04-.94-.36-1.67-.97-2.21-.6-.53-1.34-.8-2.23-.8s-1.58.26-2.24.77c-.65.51-1.03,1.26-1.12,2.24Z" />
  <path fill="#074058" d="M364.93,121.89c-.98,0-1.87-.22-2.66-.67s-1.42-1.08-1.88-1.9c-.46-.82-.69-1.78-.69-2.89s.22-2.03.67-2.85c.45-.82,1.06-1.46,1.85-1.92.78-.46,1.69-.69,2.71-.69,1.23,0,2.27.32,3.12.97.85.64,1.38,1.51,1.61,2.58h-1.81c-.14-.64-.48-1.14-1.03-1.5s-1.18-.54-1.91-.54-1.37.18-1.87.55-.89.85-1.14,1.45c-.26.6-.39,1.25-.39,1.95,0,.77.15,1.46.44,2.06s.7,1.07,1.21,1.41c.51.34,1.09.5,1.75.5.73,0,1.37-.18,1.91-.54s.89-.86,1.03-1.52h1.81c-.14.7-.43,1.32-.86,1.85-.43.53-.98.95-1.64,1.25-.66.3-1.4.45-2.23.45Z" />
  <path fill="#074058" d="M374.04,121.64v-14.7h1.76v6.07c.35-.64.85-1.14,1.49-1.5.64-.36,1.34-.54,2.1-.54,1.2,0,2.17.37,2.9,1.12.73.75,1.09,1.9,1.09,3.45v6.09h-1.74v-5.9c0-1.08-.22-1.89-.66-2.44-.44-.55-1.1-.82-1.96-.82s-1.67.33-2.29.98c-.62.65-.92,1.58-.92,2.78v5.4h-1.76Z" />
  <path fill="#074058" d="M392.79,121.89c-.95,0-1.83-.21-2.62-.64-.8-.43-1.43-1.05-1.91-1.87-.48-.82-.71-1.81-.71-2.97s.23-2.06.7-2.88c.47-.81,1.11-1.44,1.91-1.89.81-.45,1.71-.67,2.72-.67s1.85.21,2.66.63c.81.42,1.45,1.04,1.94,1.85.49.81.73,1.8.73,2.96,0,1.06-.23,2.01-.69,2.83-.46.83-1.1,1.47-1.92,1.94-.82.47-1.75.7-2.8.7ZM392.79,120.36c.69,0,1.3-.16,1.85-.49.55-.33.98-.79,1.3-1.38.32-.59.48-1.28.48-2.08,0-.76-.14-1.43-.42-2.02s-.69-1.05-1.22-1.39-1.18-.5-1.93-.5-1.42.17-1.94.52c-.53.35-.92.82-1.19,1.41-.27.59-.4,1.25-.4,1.97,0,.92.17,1.68.5,2.26.34.58.77,1.01,1.3,1.28s1.08.41,1.66.41Z" />
  <path fill="#074058" d="M403.67,108.91c-.35,0-.64-.12-.87-.35-.23-.23-.35-.52-.35-.87s.12-.62.35-.84c.23-.22.52-.34.87-.34s.62.11.86.34c.24.22.36.5.36.84s-.12.64-.36.87c-.24.23-.52.35-.86.35ZM402.79,121.64v-10.42h1.76v10.42h-1.76Z" />
  <path fill="#074058" d="M408.5,121.64l3.61-5.21-3.61-5.21h1.91l2.92,4.31,2.94-4.31h1.89l-3.61,5.21,3.61,5.21h-1.89l-2.94-4.31-2.92,4.31h-1.91Z" />
  <path fill="#074058" d="M434.16,121.89c-1.06,0-1.98-.25-2.75-.73s-1.37-1.15-1.79-1.97c-.42-.83-.63-1.75-.63-2.77s.21-1.92.62-2.75c.41-.83,1-1.48,1.77-1.96.77-.48,1.7-.72,2.79-.72.85,0,1.61.18,2.27.52.66.35,1.17.84,1.53,1.47v-6.03h1.76v14.7h-1.6l-.17-1.72c-.34.5-.82.96-1.45,1.37s-1.42.61-2.37.61ZM434.35,120.36c.77,0,1.42-.18,1.95-.54.53-.36.93-.83,1.21-1.43.27-.59.41-1.25.41-1.96,0-.76-.14-1.43-.42-2.02s-.69-1.05-1.22-1.4c-.53-.34-1.18-.51-1.93-.51-.67,0-1.27.16-1.81.48s-.96.77-1.27,1.35c-.31.58-.47,1.28-.47,2.09s.16,1.51.48,2.1.75,1.04,1.29,1.35c.54.31,1.13.47,1.77.47Z" />
  <path fill="#074058" d="M449.24,121.89c-.97,0-1.84-.22-2.61-.67s-1.39-1.08-1.84-1.9c-.45-.82-.67-1.78-.67-2.89s.21-2.05.64-2.87c.43-.82,1.03-1.46,1.81-1.91.78-.46,1.68-.68,2.72-.68.98,0,1.83.22,2.56.65.73.43,1.3,1.02,1.71,1.75.41.74.62,1.56.62,2.47v.46c0,.11,0,.29-.02.52h-8.29c.04.69.21,1.3.49,1.84.29.54.68.96,1.18,1.27.5.31,1.07.46,1.71.46.73,0,1.34-.17,1.83-.5s.85-.79,1.07-1.36h1.74c-.18.64-.48,1.22-.9,1.72-.42.5-.94.9-1.56,1.2s-1.35.44-2.17.44ZM445.88,115.47h6.55c-.04-.94-.36-1.67-.97-2.21-.6-.53-1.34-.8-2.23-.8s-1.58.26-2.24.77c-.65.51-1.03,1.26-1.12,2.24Z" />
  <path fill="#074058" d="M465.93,121.64v-14.7h1.76v14.7h-1.76Z" />
  <path fill="#074058" d="M475.99,121.89c-.71,0-1.37-.12-1.95-.36s-1.05-.6-1.4-1.08-.51-1.07-.51-1.77c0-.81.21-1.46.63-1.94.42-.48.98-.83,1.67-1.05.69-.22,1.44-.33,2.24-.33h2.81c0-.73-.12-1.3-.37-1.72s-.56-.72-.96-.9c-.39-.18-.83-.27-1.3-.27-.69,0-1.28.16-1.77.49-.5.33-.81.84-.93,1.52h-1.81c.07-.76.32-1.39.76-1.91.43-.52.98-.91,1.65-1.19.67-.27,1.37-.41,2.11-.41,1.05,0,1.9.19,2.54.58.64.39,1.11.9,1.41,1.54s.44,1.36.44,2.14v3.19c0,.52.06.91.19,1.18.13.27.45.43.97.48v1.55c-.46,0-.88-.06-1.26-.18-.38-.12-.7-.31-.96-.59s-.44-.63-.56-1.08c-.35.59-.83,1.09-1.44,1.49s-1.34.61-2.19.61ZM476.27,120.4c.7,0,1.29-.18,1.76-.54.48-.36.84-.82,1.08-1.38s.37-1.14.37-1.74v-.02h-2.67c-.49,0-.95.05-1.39.16-.43.1-.78.29-1.05.57s-.4.65-.4,1.14c0,.63.22,1.09.67,1.38.45.29.99.43,1.62.43Z" />
  <path fill="#074058" d="M493.95,121.64v-10.42h1.6l.15,2c.32-.69.81-1.23,1.47-1.64.66-.41,1.47-.61,2.44-.61v1.85h-.48c-1.15,0-2,.31-2.56.92-.56.62-.84,1.5-.84,2.65v5.25h-1.76Z" />
  <path fill="#074058" d="M507.79,121.89c-.97,0-1.84-.22-2.61-.67s-1.39-1.08-1.84-1.9c-.45-.82-.67-1.78-.67-2.89s.21-2.05.64-2.87c.43-.82,1.03-1.46,1.81-1.91.78-.46,1.68-.68,2.72-.68.98,0,1.83.22,2.56.65.73.43,1.3,1.02,1.71,1.75.41.74.62,1.56.62,2.47v.46c0,.11,0,.29-.02.52h-8.29c.04.69.21,1.3.49,1.84.29.54.68.96,1.18,1.27.5.31,1.07.46,1.71.46.73,0,1.34-.17,1.83-.5s.85-.79,1.07-1.36h1.74c-.18.64-.48,1.22-.9,1.72-.42.5-.94.9-1.56,1.2s-1.35.44-2.17.44ZM504.43,115.47h6.55c-.04-.94-.36-1.67-.97-2.21-.6-.53-1.34-.8-2.23-.8s-1.58.26-2.24.77c-.65.51-1.03,1.26-1.12,2.24ZM505.52,110.03v-1.41l4.41-2.67v1.62l-4.41,2.46Z" />
  <path fill="#074058" d="M520.81,121.89c-.81,0-1.52-.16-2.13-.49-.61-.33-1.08-.83-1.42-1.51s-.5-1.54-.5-2.57v-6.09h1.76v5.9c0,1.08.22,1.89.67,2.44.45.55,1.12.82,2.02.82s1.64-.33,2.24-.98c.59-.65.89-1.58.89-2.78v-5.4h1.76v10.42h-1.6l-.1-1.87c-.34.66-.82,1.18-1.45,1.55s-1.34.57-2.14.57Z" />
  <path fill="#074058" d="M534.92,121.89c-.83,0-1.57-.14-2.23-.43-.66-.29-1.19-.69-1.58-1.22-.4-.52-.65-1.14-.75-1.86h1.81c.11.55.4,1.02.87,1.42.47.4,1.1.6,1.9.6.74,0,1.29-.16,1.64-.47.35-.31.53-.69.53-1.12s-.1-.74-.3-.97-.5-.4-.88-.51c-.38-.12-.86-.23-1.42-.35-.59-.13-1.16-.3-1.72-.51-.56-.22-1.02-.51-1.39-.89-.36-.38-.55-.88-.55-1.49s.15-1.15.46-1.62c.31-.46.75-.83,1.31-1.09.57-.27,1.24-.4,2-.4,1.11,0,2.01.28,2.72.83s1.12,1.34,1.23,2.36h-1.74c-.07-.53-.3-.95-.68-1.25-.39-.3-.9-.45-1.54-.45s-1.12.13-1.46.4c-.34.27-.51.62-.51,1.05,0,.28.1.52.29.71.2.2.48.36.85.5.37.14.81.27,1.31.38.7.14,1.34.31,1.91.52s1.04.51,1.39.91c.35.4.52.97.52,1.71.01.62-.14,1.17-.47,1.66-.33.49-.79.88-1.39,1.16s-1.31.42-2.13.42Z" />
  <path fill="#074058" d="M547.35,121.89c-.83,0-1.57-.14-2.23-.43-.66-.29-1.19-.69-1.58-1.22-.4-.52-.65-1.14-.75-1.86h1.81c.11.55.4,1.02.87,1.42.47.4,1.1.6,1.9.6.74,0,1.29-.16,1.64-.47.35-.31.53-.69.53-1.12s-.1-.74-.3-.97-.5-.4-.88-.51c-.38-.12-.86-.23-1.42-.35-.59-.13-1.16-.3-1.72-.51-.56-.22-1.02-.51-1.39-.89-.36-.38-.55-.88-.55-1.49s.15-1.15.46-1.62c.31-.46.75-.83,1.31-1.09.57-.27,1.24-.4,2-.4,1.11,0,2.01.28,2.72.83s1.12,1.34,1.23,2.36h-1.74c-.07-.53-.3-.95-.68-1.25-.39-.3-.9-.45-1.54-.45s-1.12.13-1.46.4c-.34.27-.51.62-.51,1.05,0,.28.1.52.29.71.2.2.48.36.85.5.37.14.81.27,1.31.38.7.14,1.34.31,1.91.52s1.04.51,1.39.91c.35.4.52.97.52,1.71.01.62-.14,1.17-.47,1.66-.33.49-.79.88-1.39,1.16s-1.31.42-2.13.42Z" />
  <path fill="#074058" d="M556.86,108.91c-.35,0-.64-.12-.87-.35-.23-.23-.35-.52-.35-.87s.12-.62.35-.84c.23-.22.52-.34.87-.34s.62.11.86.34c.24.22.36.5.36.84s-.12.64-.36.87c-.24.23-.52.35-.86.35ZM555.98,121.64v-10.42h1.76v10.42h-1.76Z" />
  <path fill="#074058" d="M566.86,121.64c-.95,0-1.7-.23-2.25-.69s-.82-1.29-.82-2.5v-5.73h-1.81v-1.49h1.81v-2.5h1.76v2.5h2.92v1.49h-2.92v5.73c0,.66.13,1.1.4,1.33.27.23.74.35,1.41.35h1.11v1.51h-1.62Z" />
  <path fill="#074058" d="M577.19,121.89c-.97,0-1.84-.22-2.61-.67s-1.39-1.08-1.84-1.9c-.45-.82-.67-1.78-.67-2.89s.21-2.05.64-2.87c.43-.82,1.03-1.46,1.81-1.91.78-.46,1.68-.68,2.72-.68.98,0,1.83.22,2.56.65.73.43,1.3,1.02,1.71,1.75.41.74.62,1.56.62,2.47v.46c0,.11,0,.29-.02.52h-8.29c.04.69.21,1.3.49,1.84.29.54.68.96,1.18,1.27.5.31,1.07.46,1.71.46.73,0,1.34-.17,1.83-.5s.85-.79,1.07-1.36h1.74c-.18.64-.48,1.22-.9,1.72-.42.5-.94.9-1.56,1.2s-1.35.44-2.17.44ZM573.83,115.47h6.55c-.04-.94-.36-1.67-.97-2.21-.6-.53-1.34-.8-2.23-.8s-1.58.26-2.24.77c-.65.51-1.03,1.26-1.12,2.24Z" />
</svg>