<svg xmlns="http://www.w3.org/2000/svg" viewBox="0 0 115.118 16.616"><defs><style>.cls-1{fill:#b7a183;}</style></defs><path d="M15.628 8.023a9.588 9.588 0 0 0-1.453-.661c-.386-.151-.92-.331-1.572-.541l-1.483-.451-.92-.361c-.949-.45-1.275-.811-1.364-1.532 0-.841 1.067-1.322 2.876-1.322a9.455 9.455 0 0 1 4.478 1.322l.208.12 1.632-2.614-.237-.15a11.792 11.792 0 0 0-5.961-1.713 7.814 7.814 0 0 0-4.774 1.262 3.727 3.727 0 0 0-1.6 3.185 4.252 4.252 0 0 0 1.242 2.975 7.264 7.264 0 0 0 1.364.931 15.434 15.434 0 0 0 1.485.627l1.631.541h.059a.293.293 0 0 0 .089.03l.089.03a10.59 10.59 0 0 1 2.461.962 1.461 1.461 0 0 1 .979 1.292c0 1.051-1.068 1.562-3.173 1.562a9.423 9.423 0 0 1-4.745-1.382l-.208-.12-1.66 2.674.237.12a12.373 12.373 0 0 0 6.292 1.717c4.24 0 6.672-1.743 6.672-4.748a4.064 4.064 0 0 0-1.245-2.854 7.06 7.06 0 0 0-1.399-.901zM26.985 3.335a4.705 4.705 0 0 1 3.322 1.322l.178.181 2.253-2.438-.178-.181a7.912 7.912 0 0 0-5.575-2.219 7.829 7.829 0 0 0-5.785 2.434 8.036 8.036 0 0 0-2.4 5.859 8.2 8.2 0 0 0 2.4 5.889 7.829 7.829 0 0 0 5.782 2.434 8.016 8.016 0 0 0 5.575-2.223l.178-.181-2.224-2.464-.178.181a4.647 4.647 0 0 1-3.351 1.322 4.734 4.734 0 0 1-3.469-1.443 4.909 4.909 0 0 1-1.453-3.545 4.776 4.776 0 0 1 1.453-3.516 4.62 4.62 0 0 1 3.472-1.412zM41.249 0a7.831 7.831 0 0 0-5.783 2.434 8.04 8.04 0 0 0-2.4 5.859 8.208 8.208 0 0 0 2.4 5.889 8.087 8.087 0 0 0 11.566 0 8.135 8.135 0 0 0 2.431-5.889 8.018 8.018 0 0 0-2.431-5.859 7.879 7.879 0 0 0-5.783-2.434zm3.47 11.839a4.628 4.628 0 0 1-3.47 1.442 4.737 4.737 0 0 1-3.469-1.442 4.914 4.914 0 0 1-1.454-3.546 4.777 4.777 0 0 1 1.454-3.516 4.624 4.624 0 0 1 3.469-1.442 4.741 4.741 0 0 1 3.47 1.442 4.78 4.78 0 0 1 1.453 3.516 4.963 4.963 0 0 1-1.453 3.546zM64.024 5.949a5.213 5.213 0 0 0-1.631-3.906 5.387 5.387 0 0 0-3.915-1.622h-7.678v15.779h3.29v-12.564h4.3a2.267 2.267 0 0 1 1.661.691 2.308 2.308 0 0 1 .682 1.652 2.293 2.293 0 0 1-2.343 2.284h-3.085l5.931 7.937h3.915l-4-5.408a5.461 5.461 0 0 0 2.873-4.843zM78.762 3.576v-3.155h-12.662v15.779h12.662v-3.16h-9.371v-9.464zM77.131 6.731h-7.71l2.343 3.154h5.367zM83.6 13.07a2.034 2.034 0 0 0-1.454-.631 2.006 2.006 0 0 0-1.453.6 2.144 2.144 0 0 0 0 2.975 2.052 2.052 0 0 0 1.453.6 2.089 2.089 0 0 0 1.454-3.544z"/><path class="cls-1" d="M85.909 16.2h3.291v-5.8h7.74v-3.159h-7.74v-3.515h9.371v-3.305h-12.662zM111.114 10.787a5.461 5.461 0 0 0 2.877-4.838 5.213 5.213 0 0 0-1.631-3.906 5.386 5.386 0 0 0-3.914-1.622h-8.155v15.779h3.262v-4.692h4.181l3.466 4.692h3.915zm-7.561-7.151h4.8a2.266 2.266 0 0 1 1.66.691 2.308 2.308 0 0 1 .682 1.652 2.293 2.293 0 0 1-2.342 2.284h-4.8zM4.033 8.593l-4.033-5.408v10.787z"/></svg>